<svg xmlns="http://www.w3.org/2000/svg" viewBox="0 0 800 145.6"><defs><style>.cls-1{fill:#fff}.cls-2{fill:#f5be08}.cls-3{fill:#f43c7c}.cls-4{fill:#8355ec}.cls-5{fill:#2dcbdf}</style></defs><g id="图层_2" data-name="图层 2"><g id="图层_1-2" data-name="图层 1"><path d="M273.28 105.66h-40.92l-6.16 18.48h-21.85l35.93-102.67h25.08l36.08 102.67h-22ZM267 86.74l-14.1-41.95-14.08 41.95ZM384.75 55.94c0 19.21-15.26 34.46-35.05 34.46h-18.05v33.74h-20.24V21.47h38.29c19.79 0 35.05 15.25 35.05 34.47Zm-20.09 0c0-8.95-6.31-15.55-15-15.55h-18.01v31.09h18.05c8.65 0 14.96-6.74 14.96-15.54ZM418.19 21.47v102.67H398V21.47ZM513 31.15h-31.55v93h-10.27v-93h-31.53v-9.68H513ZM585.73 50.8v73.34h-9.68v-14.38a34 34 0 0 1-29.63 16.14 38 38 0 0 1-37.84-38.43A38 38 0 0 1 546.42 49a34 34 0 0 1 29.63 16.14V50.8Zm-9.68 36.67a28.9 28.9 0 1 0-28.9 29 28.61 28.61 0 0 0 28.9-29ZM683.4 87.47a38 38 0 0 1-37.84 38.43 34 34 0 0 1-29.62-16.14v14.38h-9.68V21.47h9.68v43.71A34 34 0 0 1 645.56 49a38 38 0 0 1 37.84 38.47Zm-9.68 0a28.89 28.89 0 1 0-28.89 29 28.61 28.61 0 0 0 28.89-29ZM699.53 21.47h9.69v102.67h-9.69ZM800 87.76c0 1.47-.15 3.08-.29 4.55h-64.39c2 15 13.64 24.2 29.19 24.2 11.58 0 19.65-5.43 23.61-12.47l8.51 5c-6.16 10-17.46 16.87-32.27 16.87-23.17 0-39-16.28-39-38.43 0-21.56 15.54-38.43 38.28-38.43C786.07 49 800 67.67 800 87.76Zm-64.68-4.84H790c-2.06-16.13-13.79-24.49-26.4-24.49-15.37 0-26.37 10.12-28.28 24.49Z" class="cls-1"/><path d="M158.57 113.41 99.32 10.78A21.45 21.45 0 0 0 70 2.93a21.45 21.45 0 0 0-7.86 29.31l59.26 102.63a21.46 21.46 0 0 0 37.16-21.46Z" class="cls-2"/><rect width="161.43" height="42.92" y="102.64" class="cls-2" rx="21.46"/><path d="M133.78 70.45 99.3 10.73A21.46 21.46 0 1 0 62.13 32.2L96.6 91.92a21.47 21.47 0 0 0 37.18-21.47Z" class="cls-3"/><path d="M91.45 2.88a21.46 21.46 0 0 0-29.32 7.85L2.88 113.37a21.46 21.46 0 1 0 37.17 21.45L99.3 32.19a21.45 21.45 0 0 0-7.85-29.31Z" class="cls-4"/><path d="M114.54 102.64a21.45 21.45 0 0 1-17.85-10.58 1 1 0 0 1-.08-.14l-15.9-27.53-22.08 38.25h55.91Z" class="cls-5"/></g></g></svg>