<svg xmlns="http://www.w3.org/2000/svg" width="48" height="48" viewBox="0 0 48 48"><path fill="#29b6f6" d="M38.9 22.1c0-.4.1-.7.1-1.1 0-6.1-4.9-11-11-11-4.9 0-9.1 3.3-10.5 7.7-1-1.1-2.4-1.7-4-1.7-3 0-5.5 2.5-5.5 5.5 0 .3 0 .5.1.7C4.6 23.1 2 26.3 2 30c0 4.4 3.6 8 8 8h28c4.4 0 8-3.6 8-8 0-4.1-3.1-7.5-7.1-7.9z"/><path fill="#1565c0" d="M38 39H10c-5 0-9-4-9-9 0-3.8 2.4-7.2 6-8.5 0-3.6 2.9-6.5 6.5-6.5 1.3 0 2.5.4 3.6 1.1C19 11.8 23.2 9 28 9c6.6 0 12 5.4 12 12v.2c4.1.9 7 4.5 7 8.8 0 5-4 9-9 9zM13.5 17C11 17 9 19 9 21.5v.6l.2.9-.9.2C5.2 24 3 26.8 3 30c0 3.9 3.1 7 7 7h28c3.9 0 7-3.1 7-7 0-3.5-2.7-6.5-6.2-6.9l-1-.1.1-1v-1c0-5.5-4.5-10-10-10-4.4 0-8.2 2.8-9.5 7l-.5 1.6-1.2-1.2c-.8-.9-2-1.4-3.2-1.4z"/></svg>